# xmcd CD database file
#
# Track frame offsets:
#	150
#	11988
#	23746
#	36671
#	52578
#	65862
#	79534
#	93509
#	106434
#	118119
#	131399
#	142203
#	153391
#	166504
#	181921
#	194051
#	205764
#	224430
#	238115
#	249663
#	262584
#	276779
#	287422
#
# Disc length: 3996 seconds
#
# Revision: 0
# Processed by: cddbd v1.4b42PL1 Copyright (c) Steve Scherf et al.
# Submitted via: Feurio! 1.62 - http://www.feurio.com
#
DISCID=4d0f9a17
DTITLE=Sonny Boy Williamson - The Essential Sonny Boy Williamson
DYEAR=1900
DGENRE=blues
TTITLE0=Good_Evening_Everybody
TTITLE1=Don_t_Start_Me_To_Talkin_
TTITLE2=All_My_Love_In_Vain
TTITLE3=You_Killing_Me
TTITLE4=Let_Me_Explain
TTITLE5=Your_Imagination
TTITLE6=Don_t_Lose_Your_Eye
TTITLE7=Keep_It_To_Yourself
TTITLE8=The_Key_To_Your_Door_
TTITLE9=Have_You_Ever_Been_In_Love
TTITLE10=Fattening_Frogs_For_Snakes
TTITLE11=I_Don_t_Know
TTITLE12=Like_Wolf
TTITLE13=Cross_My_Heart
TTITLE14=Ninety_Nine
TTITLE15=Born_Blind
TTITLE16=Little_Village
TTITLE17=Unseen_Eye
TTITLE18=Your_Funeral_And_My_Trial
TTITLE19=My_Pocket
TTITLE20=Unseeing_Eye
TTITLE21=Let_Your_Conscience_Be_Your_Guide
TTITLE22=The_Goat
EXTD=
EXTT0=
EXTT1=
EXTT2=
EXTT3=
EXTT4=
EXTT5=
EXTT6=
EXTT7=
EXTT8=
EXTT9=
EXTT10=
EXTT11=
EXTT12=
EXTT13=
EXTT14=
EXTT15=
EXTT16=
EXTT17=
EXTT18=
EXTT19=
EXTT20=
EXTT21=
EXTT22=
PLAYORDER=
